<svg width="302" height="232" viewBox="0 0 302 232" fill="none" xmlns="http://www.w3.org/2000/svg">
<circle cx="118.95" cy="121.869" r="87.6432" fill="url(#paint0_linear_200_960)"/>
<g filter="url(#filter0_ddd_200_960)">
<rect x="170.918" y="3" width="134.956" height="189.513" rx="5" transform="rotate(19.67 170.918 3)" fill="url(#paint1_linear_200_960)"/>
</g>
<line x1="179.747" y1="20.9508" x2="280.33" y2="56.9055" stroke="black" stroke-opacity="0.2" stroke-width="2"/>
<line x1="173.948" y1="37.1741" x2="274.531" y2="73.1287" stroke="black" stroke-opacity="0.2" stroke-width="2"/>
<line x1="167.956" y1="53.938" x2="268.539" y2="89.8926" stroke="black" stroke-opacity="0.2" stroke-width="2"/>
<line x1="161.964" y1="70.7021" x2="262.547" y2="106.657" stroke="black" stroke-opacity="0.2" stroke-width="2"/>
<line x1="155.971" y1="87.4657" x2="256.555" y2="123.42" stroke="black" stroke-opacity="0.2" stroke-width="2"/>
<line x1="149.979" y1="104.23" x2="250.563" y2="140.184" stroke="black" stroke-opacity="0.2" stroke-width="2"/>
<line x1="143.985" y1="120.994" x2="244.568" y2="156.948" stroke="black" stroke-opacity="0.2" stroke-width="2"/>
<line x1="137.993" y1="137.758" x2="238.576" y2="173.712" stroke="black" stroke-opacity="0.2" stroke-width="2"/>
<line x1="132.001" y1="154.521" x2="232.584" y2="190.476" stroke="black" stroke-opacity="0.2" stroke-width="2"/>
<line x1="126.008" y1="171.285" x2="226.592" y2="207.24" stroke="black" stroke-opacity="0.2" stroke-width="2"/>
<rect x="177.479" y="27.3005" width="37.3283" height="5.16854" rx="2.58427" transform="rotate(19.67 177.479 27.3005)" fill="#C4C4C4"/>
<rect x="171.486" y="44.0643" width="58.0025" height="5.16854" rx="2.58427" transform="rotate(19.67 171.486 44.0643)" fill="#C4C4C4"/>
<rect x="165.494" y="60.8281" width="28.7141" height="5.16854" rx="2.58427" transform="rotate(19.67 165.494 60.8281)" fill="#C4C4C4"/>
<rect x="159.502" y="77.592" width="40.774" height="5.16854" rx="2.58427" transform="rotate(19.67 159.502 77.592)" fill="#C4C4C4"/>
<rect x="153.508" y="94.3559" width="48.2397" height="5.16854" rx="2.58427" transform="rotate(19.67 153.508 94.3559)" fill="#C4C4C4"/>
<rect x="147.516" y="111.12" width="58.0025" height="5.16854" rx="2.58427" transform="rotate(19.67 147.516 111.12)" fill="#C4C4C4"/>
<rect x="141.523" y="127.884" width="40.774" height="5.16854" rx="2.58427" transform="rotate(19.67 141.523 127.884)" fill="#C4C4C4"/>
<rect x="135.531" y="144.648" width="28.7141" height="5.16854" rx="2.58427" transform="rotate(19.67 135.531 144.648)" fill="#C4C4C4"/>
<rect x="129.537" y="161.411" width="37.3283" height="5.16854" rx="2.58427" transform="rotate(19.67 129.537 161.411)" fill="#C4C4C4"/>
<rect x="259.676" y="56.6825" width="19.5256" height="5.16854" rx="2.58427" transform="rotate(19.67 259.676 56.6825)" fill="#31AF92"/>
<rect x="253.684" y="73.4466" width="19.5256" height="5.16854" rx="2.58427" transform="rotate(19.67 253.684 73.4466)" fill="#31AF92"/>
<rect x="247.689" y="90.2104" width="19.5256" height="5.16854" rx="2.58427" transform="rotate(19.67 247.689 90.2104)" fill="#31AF92"/>
<rect x="241.697" y="106.974" width="19.5256" height="5.16854" rx="2.58427" transform="rotate(19.67 241.697 106.974)" fill="#31AF92"/>
<rect x="235.705" y="123.738" width="19.5256" height="5.16854" rx="2.58427" transform="rotate(19.67 235.705 123.738)" fill="#31AF92"/>
<rect x="229.713" y="140.502" width="19.5256" height="5.16854" rx="2.58427" transform="rotate(19.67 229.713 140.502)" fill="#31AF92"/>
<rect x="223.721" y="157.266" width="19.5256" height="5.16854" rx="2.58427" transform="rotate(19.67 223.721 157.266)" fill="#31AF92"/>
<rect x="217.729" y="174.03" width="19.5256" height="5.16854" rx="2.58427" transform="rotate(19.67 217.729 174.03)" fill="#31AF92"/>
<rect x="211.734" y="190.794" width="19.5256" height="5.16854" rx="2.58427" transform="rotate(19.67 211.734 190.794)" fill="#31AF92"/>
<g filter="url(#filter1_ddd_200_960)">
<rect x="3" y="51.5282" width="114.238" height="26.2848" rx="5" fill="#B5E3D7"/>
</g>
<rect x="9.06641" y="57.5939" width="58.0025" height="5.16854" rx="2.58427" fill="#31AF92"/>
<rect x="9.06641" y="66.6926" width="36.3944" height="5.05478" rx="2.52739" fill="#31AF92"/>
<path d="M103.085 57.5939C99.1752 57.5939 96.0078 60.7613 96.0078 64.6706C96.0078 68.5799 99.1752 71.7473 103.085 71.7473C106.994 71.7473 110.161 68.5799 110.161 64.6706C110.161 60.7613 106.994 57.5939 103.085 57.5939ZM103.085 70.3776C99.9314 70.3776 97.3775 67.8237 97.3775 64.6706C97.3775 61.5175 99.9314 58.9636 103.085 58.9636C106.238 58.9636 108.792 61.5175 108.792 64.6706C108.792 67.8237 106.238 70.3776 103.085 70.3776ZM104.848 67.3986L102.425 65.638C102.337 65.5723 102.286 65.4696 102.286 65.3612V60.6757C102.286 60.4874 102.44 60.3333 102.628 60.3333H103.541C103.729 60.3333 103.883 60.4874 103.883 60.6757V64.7191L105.79 66.1059C105.944 66.2172 105.975 66.4312 105.864 66.5853L105.327 67.3244C105.216 67.4756 105.002 67.5099 104.848 67.3986Z" fill="#31AF92"/>
<defs>
<filter id="filter0_ddd_200_960" x="103.518" y="0.389877" width="198.092" height="231.101" filterUnits="userSpaceOnUse" color-interpolation-filters="sRGB">
<feFlood flood-opacity="0" result="BackgroundImageFix"/>
<feColorMatrix in="SourceAlpha" type="matrix" values="0 0 0 0 0 0 0 0 0 0 0 0 0 0 0 0 0 0 127 0" result="hardAlpha"/>
<feOffset dy="1"/>
<feGaussianBlur stdDeviation="2.5"/>
<feColorMatrix type="matrix" values="0 0 0 0 0 0 0 0 0 0 0 0 0 0 0 0 0 0 0.2 0"/>
<feBlend mode="normal" in2="BackgroundImageFix" result="effect1_dropShadow_200_960"/>
<feColorMatrix in="SourceAlpha" type="matrix" values="0 0 0 0 0 0 0 0 0 0 0 0 0 0 0 0 0 0 127 0" result="hardAlpha"/>
<feOffset dy="3"/>
<feGaussianBlur stdDeviation="0.5"/>
<feColorMatrix type="matrix" values="0 0 0 0 0 0 0 0 0 0 0 0 0 0 0 0 0 0 0.12 0"/>
<feBlend mode="normal" in2="effect1_dropShadow_200_960" result="effect2_dropShadow_200_960"/>
<feColorMatrix in="SourceAlpha" type="matrix" values="0 0 0 0 0 0 0 0 0 0 0 0 0 0 0 0 0 0 127 0" result="hardAlpha"/>
<feOffset dy="2"/>
<feGaussianBlur stdDeviation="1"/>
<feColorMatrix type="matrix" values="0 0 0 0 0 0 0 0 0 0 0 0 0 0 0 0 0 0 0.14 0"/>
<feBlend mode="normal" in2="effect2_dropShadow_200_960" result="effect3_dropShadow_200_960"/>
<feBlend mode="normal" in="SourceGraphic" in2="effect3_dropShadow_200_960" result="shape"/>
</filter>
<filter id="filter1_ddd_200_960" x="0" y="49.5282" width="120.238" height="32.2849" filterUnits="userSpaceOnUse" color-interpolation-filters="sRGB">
<feFlood flood-opacity="0" result="BackgroundImageFix"/>
<feColorMatrix in="SourceAlpha" type="matrix" values="0 0 0 0 0 0 0 0 0 0 0 0 0 0 0 0 0 0 127 0" result="hardAlpha"/>
<feOffset dy="1"/>
<feGaussianBlur stdDeviation="1.5"/>
<feColorMatrix type="matrix" values="0 0 0 0 0 0 0 0 0 0 0 0 0 0 0 0 0 0 0.2 0"/>
<feBlend mode="normal" in2="BackgroundImageFix" result="effect1_dropShadow_200_960"/>
<feColorMatrix in="SourceAlpha" type="matrix" values="0 0 0 0 0 0 0 0 0 0 0 0 0 0 0 0 0 0 127 0" result="hardAlpha"/>
<feOffset dy="2"/>
<feGaussianBlur stdDeviation="0.5"/>
<feColorMatrix type="matrix" values="0 0 0 0 0 0 0 0 0 0 0 0 0 0 0 0 0 0 0.12 0"/>
<feBlend mode="normal" in2="effect1_dropShadow_200_960" result="effect2_dropShadow_200_960"/>
<feColorMatrix in="SourceAlpha" type="matrix" values="0 0 0 0 0 0 0 0 0 0 0 0 0 0 0 0 0 0 127 0" result="hardAlpha"/>
<feOffset dy="1"/>
<feGaussianBlur stdDeviation="0.5"/>
<feColorMatrix type="matrix" values="0 0 0 0 0 0 0 0 0 0 0 0 0 0 0 0 0 0 0.14 0"/>
<feBlend mode="normal" in2="effect2_dropShadow_200_960" result="effect3_dropShadow_200_960"/>
<feBlend mode="normal" in="SourceGraphic" in2="effect3_dropShadow_200_960" result="shape"/>
</filter>
<linearGradient id="paint0_linear_200_960" x1="164.375" y1="227.434" x2="136.068" y2="11.5955" gradientUnits="userSpaceOnUse">
<stop stop-color="#FDC18D"/>
<stop offset="1" stop-color="#FFD2AA" stop-opacity="0.24"/>
</linearGradient>
<linearGradient id="paint1_linear_200_960" x1="238.396" y1="3" x2="238.396" y2="192.555" gradientUnits="userSpaceOnUse">
<stop stop-color="white"/>
<stop offset="1" stop-color="#F1F1F1"/>
</linearGradient>
</defs>
</svg>
