<svg width="307" height="232" viewBox="0 0 307 232" fill="none" xmlns="http://www.w3.org/2000/svg">
<g filter="url(#filter0_d_241_133)">
<rect x="34" y="4" width="235" height="159" rx="5" fill="#ABCDFD"/>
</g>
<g filter="url(#filter1_d_241_133)">
<rect x="18" y="14" width="267" height="181" rx="5" fill="#8FB9FB"/>
</g>
<g filter="url(#filter2_d_241_133)">
<rect x="4" y="24" width="295" height="199.896" rx="5" fill="white"/>
</g>
<path d="M4 29C4 26.2386 6.23858 24 9 24H294C296.761 24 299 26.2386 299 29V163H4V29Z" fill="#568FF7"/>
<path opacity="0.35" d="M146.544 68.7875C149.593 49.1822 179.719 39.4737 198.406 52.2256C217.093 64.9774 233.164 92.8703 246.832 96.3829C267.617 101.713 281.726 126.453 263.804 129.312C239.377 133.224 206.602 103.623 185.248 99.0562C163.893 94.4895 143.892 85.8219 146.544 68.7875Z" fill="url(#paint0_linear_241_133)"/>
<path opacity="0.35" d="M183.532 75.8359C169.46 68.5859 148.927 70.2679 142.634 88.6836C136.341 107.099 136.056 129.688 159.652 129.659C183.248 129.629 177.955 119.362 193.97 113.226C209.985 107.089 196.83 82.686 183.532 75.8359Z" fill="url(#paint1_linear_241_133)"/>
<path opacity="0.35" d="M153.717 129.117C164.402 145.074 269.908 144.935 271.295 124.6C272.082 113.14 253.906 105.001 236.937 115.658C223.494 124.104 213.848 94.2317 198.975 94.2978C180.182 94.387 177.981 111.692 170.947 121.133C164.624 129.622 153.717 129.117 153.717 129.117Z" fill="url(#paint2_linear_241_133)"/>
<path d="M220.939 82.3357C220.939 82.3357 211.044 82.7356 208.585 83.261C205.966 83.8194 204.374 84.9826 203.871 84.2986C203.033 83.1585 205.433 81.7872 208.009 81.2684C210.584 80.7496 220.343 78.9553 220.343 78.9553L220.939 82.3357Z" fill="#ED9C66"/>
<path d="M225.95 61.1277C221.978 62.78 221.451 66.9733 221.451 66.9733L220.362 76.5232C220.301 77.0593 220.069 77.5618 219.702 77.9576C219.335 78.3534 218.85 78.6219 218.32 78.7239L218.045 78.7801L218.975 83.3502L222.355 83.1684C222.892 83.1394 223.406 82.9444 223.826 82.6104C224.247 82.2764 224.553 81.8201 224.702 81.3047L228.012 65.298L225.95 61.1277Z" fill="#B0CEEB"/>
<path d="M241.211 136.476V139.384H233.786C233.786 139.384 233.091 139.258 234.918 138.412C235.895 137.96 239.006 136.476 239.006 136.476H241.211Z" fill="#1A135A"/>
<path d="M229.691 136.701V139.384H222.263C222.263 139.384 221.567 139.258 223.395 138.412C224.371 137.96 227.483 136.72 227.483 136.72L229.691 136.701Z" fill="#1A135A"/>
<path d="M236.278 60.1728H229.807V62.0827H236.272L236.278 60.1728Z" fill="#7C7B8A"/>
<path d="M225.904 88.8389H242.002V62.9881C242.002 62.4947 241.806 62.0215 241.456 61.6726C241.107 61.3238 240.633 61.1277 240.139 61.1277H225.904V88.8389Z" fill="#FA9274"/>
<path d="M241.38 136.575L238.331 136.572L234.799 95.7584L232.975 95.8046L229.774 136.866L226.801 136.872L225.914 89.9062H242.009L241.38 136.575Z" fill="#6365C5"/>
<path d="M235.289 61.7986V52.0537L228.007 51.6076C228.007 51.6076 227.871 52.8468 227.871 54.9385C227.871 57.0302 228.099 58.2033 228.652 58.4445C229.205 58.6858 230.887 58.0315 230.887 58.0315V61.7986C231.115 62.1518 231.426 62.4436 231.794 62.6481C232.162 62.8527 232.574 62.9638 232.995 62.9716C233.44 62.9523 233.875 62.8376 234.271 62.6351C234.667 62.4327 235.014 62.1473 235.289 61.7986Z" fill="#ED9C66"/>
<path d="M225.917 89.9062H242.012V88.4093H225.917V89.9062Z" fill="#2A2683"/>
<path d="M232.461 54.5783C232.461 54.5783 232.421 52.5957 233.477 52.5957C234.652 52.5957 234.52 54.119 234.437 54.4065C234.289 54.9708 234.066 55.5131 233.775 56.0191C233.775 56.0191 234.06 57.5887 234.616 58.1042H235.278C235.278 58.1042 236.304 57.6449 236.602 56.1612C236.9 54.6775 237.006 51.8125 235.94 50.8014C234.874 49.7902 233.457 49.397 232.03 49.2185C229.856 48.9476 227.356 48.7096 226.112 49.6778C224.652 50.8113 226.463 52.2586 227.482 52.6188C228.432 52.9493 231.574 52.6386 231.574 52.6386L231.613 54.5684L232.461 54.5783Z" fill="#1A135A"/>
<path d="M236.278 60.1728L232.965 62.9716L234.584 64.4091L236.272 63.117L236.278 60.1728Z" fill="white"/>
<path d="M229.807 60.1728L232.965 62.9716L231.286 64.5049L229.807 63.3516V60.1728Z" fill="white"/>
<path d="M216.264 78.7008C216.264 78.7537 216.959 83.6806 216.959 83.6806L219.412 83.5022L218.789 78.3704L216.264 78.7008Z" fill="white"/>
<path d="M235.438 88.2804H232.336V90.0251H235.438V88.2804Z" fill="#303658"/>
<path d="M239.226 88.2837H238.617V90.0285H239.226V88.2837Z" fill="#6365C5"/>
<path d="M229.049 88.2804H228.439V90.0251H229.049V88.2804Z" fill="#6365C5"/>
<path d="M240.026 61.1277V82.3687L239.033 83.1189L238.242 83.7203L240.861 87.7418L245.435 85.052V69.2699C245.435 69.2699 245.435 61.1277 240.026 61.1277Z" fill="#B0CEEB"/>
<path d="M239.251 83.75C239.251 83.75 231.561 89.9756 229.37 91.2048C227.033 92.5266 225.067 92.6885 225.143 93.5345C225.269 94.9422 227.976 94.3903 230.254 93.0785C232.531 91.7666 241.045 86.681 241.045 86.681L239.251 83.75Z" fill="#ED9C66"/>
<path d="M236.928 84.5266C236.964 84.5695 240.102 88.6208 240.102 88.6208L242.198 87.2098L239.003 82.9305L236.928 84.5266Z" fill="white"/>
<path d="M210.24 74.0746C210.24 74.0746 214.934 73.5558 215.166 74.8643C215.398 76.1729 210.584 76.543 210.584 76.543L210.24 74.0746Z" fill="#ED9C66"/>
<path d="M186.701 60.5924L186.406 67.968L194.411 79.5335C194.718 79.981 195.159 80.3212 195.67 80.5066C196.181 80.6921 196.737 80.7135 197.261 80.5678L211.194 76.7181L210.442 73.7838L199.697 75.0097C198.585 75.1618 197.655 75.0626 197.029 73.5558L192.904 64.756C192.904 64.756 191.064 60.9031 186.701 60.5924Z" fill="#2A2683"/>
<path d="M172.996 136.443V139.384H180.51C180.51 139.384 181.212 139.255 179.362 138.392C178.369 137.936 175.227 136.436 175.227 136.436L172.996 136.443Z" fill="#1A135A"/>
<path d="M184.65 136.671V139.384H192.168C192.168 139.384 192.87 139.255 191.019 138.392C190.026 137.936 186.882 136.681 186.882 136.681L184.65 136.671Z" fill="#1A135A"/>
<path d="M177.984 59.2112H184.532V61.141H177.991L177.984 59.2112Z" fill="#B0CEEB"/>
<path d="M185.135 62.0431H177.422V90.306H185.135V62.0431Z" fill="#DEDFFC"/>
<path d="M172.819 136.542L175.908 136.539L179.724 95.6923L181.572 95.7385L184.567 136.836L187.576 136.843L188.473 89.3015H172.184L172.819 136.542Z" fill="#7376C9"/>
<path d="M178.986 60.8568V50.9897L186.348 50.5403C186.348 50.5403 187.265 51.6869 187.265 53.8051C187.265 55.9232 186.309 56.4817 185.749 56.7262C185.19 56.9707 183.432 57.0401 183.432 57.0401V60.8568C183.201 61.2141 182.885 61.5092 182.513 61.7161C182.141 61.9229 181.723 62.0352 181.297 62.0431C180.849 62.0221 180.411 61.9054 180.012 61.7007C179.614 61.496 179.264 61.2082 178.986 60.8568Z" fill="#ED9C66"/>
<path d="M188.473 87.7848H172.184V89.3015H188.473V87.7848Z" fill="#553114"/>
<path d="M181.847 53.5308C181.847 53.5308 181.89 51.5481 180.821 51.5481C179.633 51.5481 179.765 53.0913 179.851 53.3788C180.182 54.499 181.506 54.7997 181.506 54.7997C181.261 55.3523 180.925 55.8604 180.513 56.3032C180.066 56.6663 179.555 56.9441 179.007 57.1227C179.007 57.1227 177.967 56.6601 177.653 55.1566C177.339 53.6531 177.246 50.7551 178.338 49.734C179.431 48.7129 180.986 48.9277 182.416 48.7427C184.618 48.4684 186.028 46.9715 187.286 47.9496C188.766 49.0995 187.948 51.2012 186.899 51.5647C185.935 51.8951 182.718 51.8951 182.718 51.8951V53.5209L181.847 53.5308Z" fill="#1A135A"/>
<path d="M177.985 59.5945V88.7364C177.985 88.7364 178.568 96.2144 169.885 96.2144V69.1774C169.885 69.1774 170.103 59.5945 177.985 59.5945Z" fill="#3B3DB2"/>
<path d="M180.683 64.1613L180.127 83.1949L181.974 84.3812L183.821 83.1123L182.034 64.1613H180.683Z" fill="#FA6984"/>
<path d="M184.525 59.5945V89.4667C184.525 89.4667 184.552 96.2144 190.573 96.2144V62.0398C190.573 62.0398 187.654 59.5945 184.525 59.5945Z" fill="#3B3DB2"/>
<path d="M179.977 63.1468L180.682 64.224H182.032L182.701 63.2459L182.698 61.6697H179.977V63.1468Z" fill="#FA6984"/>
<path d="M196.66 84.0078C196.66 84.0078 202.225 84.0309 201.791 85.2139C201.331 86.4596 197.1 86.4597 197.1 86.4597L196.66 84.0078Z" fill="#ED9C66"/>
<path d="M181.328 79.94L177.985 72.6206L172.914 61.5177C169.997 64.3132 169.885 69.1807 169.885 69.1807V71.9234L175.737 83.8524C175.963 84.3115 176.278 84.7209 176.664 85.0568C177.05 85.3928 177.499 85.6484 177.985 85.8087C178.284 85.9073 178.594 85.9694 178.909 85.9937L197.668 86.6546L198.052 83.6806C198.052 83.6806 182.341 81.384 181.328 79.94Z" fill="#2A2683"/>
<path d="M177.984 59.2112L181.338 61.6631L179.699 63.4937L177.991 62.1885L177.984 59.2112Z" fill="white"/>
<path d="M184.532 59.2112L181.338 61.6631L183.036 63.5929L184.532 62.4231V59.2112Z" fill="white"/>
<circle cx="50" cy="163" r="26" fill="#0F53CE"/>
<rect opacity="0.35" x="24" y="44" width="75" height="27.2177" rx="5" fill="white"/>
<rect opacity="0.35" x="30.0488" y="50.0484" width="62.9032" height="2.41935" fill="white"/>
<rect x="30.0488" y="50.0484" width="38.7097" height="2.41935" fill="white"/>
<path fill-rule="evenodd" clip-rule="evenodd" d="M75.1335 203.004L72.0178 202.735L70.8001 199.867L69.5825 202.74L66.4668 203.004L68.8328 205.054L68.1221 208.1L70.8001 206.484L73.4781 208.1L72.7718 205.054L75.1335 203.004ZM70.8008 205.673V201.643L71.5418 203.394L73.4398 203.558L72.0011 204.806L72.4344 206.661L70.8008 205.673Z" fill="black" fill-opacity="0.87"/>
<path fill-rule="evenodd" clip-rule="evenodd" d="M60.3997 206.484L63.0777 208.1L62.3671 205.054L64.7331 203.004L61.6174 202.74L60.3997 199.867L59.1821 202.74L56.0664 203.004L58.4324 205.054L57.7217 208.1L60.3997 206.484Z" fill="black" fill-opacity="0.87"/>
<path fill-rule="evenodd" clip-rule="evenodd" d="M50.0013 206.484L52.6793 208.1L51.9686 205.054L54.3346 203.004L51.219 202.74L50.0013 199.867L48.7836 202.74L45.668 203.004L48.034 205.054L47.3233 208.1L50.0013 206.484Z" fill="black" fill-opacity="0.87"/>
<path fill-rule="evenodd" clip-rule="evenodd" d="M39.6009 206.484L42.2789 208.1L41.5682 205.054L43.9342 203.004L40.8186 202.74L39.6009 199.867L38.3832 202.74L35.2676 203.004L37.6336 205.054L36.9229 208.1L39.6009 206.484Z" fill="black" fill-opacity="0.87"/>
<path fill-rule="evenodd" clip-rule="evenodd" d="M29.2005 206.484L31.8785 208.1L31.1679 205.054L33.5339 203.004L30.4182 202.74L29.2005 199.867L27.9829 202.74L24.8672 203.004L27.2332 205.054L26.5225 208.1L29.2005 206.484Z" fill="black" fill-opacity="0.87"/>
<path d="M284.976 202.469L285.323 202.113C285.47 201.962 285.707 201.962 285.853 202.113L288.89 205.228C289.037 205.378 289.037 205.622 288.89 205.771L285.853 208.887C285.706 209.038 285.468 209.038 285.323 208.887L284.976 208.531C284.828 208.379 284.831 208.13 284.982 207.981L286.865 206.141H282.375C282.167 206.141 282 205.97 282 205.756V205.244C282 205.03 282.167 204.859 282.375 204.859H286.865L284.982 203.019C284.829 202.87 284.826 202.621 284.976 202.469Z" fill="#0F53CE"/>
<rect x="98" y="177" width="154" height="7" rx="3.5" fill="#C4C4C4"/>
<rect x="98" y="187" width="61" height="7" rx="3.5" fill="#C4C4C4"/>
<rect x="98" y="202" width="99" height="7" rx="3.5" fill="#F1F1F1"/>
<rect x="229" y="202" width="49" height="7" rx="3.5" fill="#0F53CE"/>
<path opacity="0.4" d="M48.193 172.303L49.167 168.156L47.295 164.875H52.9108L51.0389 168.156L52.0129 172.303L50.1029 176.125L48.193 172.303ZM50.1029 163C51.5838 163 53.0315 162.56 54.2629 161.736C55.4942 160.912 56.4539 159.741 57.0206 158.37C57.5874 157 57.7356 155.492 57.4467 154.037C57.1578 152.582 56.4447 151.246 55.3975 150.197C54.3503 149.148 53.0162 148.434 51.5637 148.144C50.1112 147.855 48.6057 148.003 47.2375 148.571C45.8693 149.139 44.6999 150.1 43.8771 151.333C43.0544 152.567 42.6152 154.017 42.6152 155.5C42.6152 157.489 43.4041 159.397 44.8083 160.803C46.2125 162.21 48.1171 163 50.1029 163Z" fill="white"/>
<path d="M55.7075 164.91L50.1034 176.125L44.4994 164.91C40.3285 165.109 37 168.525 37 172.75V175.187C37 175.933 37.2958 176.649 37.8224 177.176C38.349 177.704 39.0632 178 39.8079 178H60.399C61.1437 178 61.8579 177.704 62.3845 177.176C62.9111 176.649 63.2069 175.933 63.2069 175.187V172.75C63.2069 168.525 59.8784 165.109 55.7075 164.91Z" fill="white"/>
<defs>
<filter id="filter0_d_241_133" x="30" y="0" width="247" height="171" filterUnits="userSpaceOnUse" color-interpolation-filters="sRGB">
<feFlood flood-opacity="0" result="BackgroundImageFix"/>
<feColorMatrix in="SourceAlpha" type="matrix" values="0 0 0 0 0 0 0 0 0 0 0 0 0 0 0 0 0 0 127 0" result="hardAlpha"/>
<feOffset dx="2" dy="2"/>
<feGaussianBlur stdDeviation="3"/>
<feColorMatrix type="matrix" values="0 0 0 0 0 0 0 0 0 0 0 0 0 0 0 0 0 0 0.25 0"/>
<feBlend mode="normal" in2="BackgroundImageFix" result="effect1_dropShadow_241_133"/>
<feBlend mode="normal" in="SourceGraphic" in2="effect1_dropShadow_241_133" result="shape"/>
</filter>
<filter id="filter1_d_241_133" x="14" y="10" width="279" height="193" filterUnits="userSpaceOnUse" color-interpolation-filters="sRGB">
<feFlood flood-opacity="0" result="BackgroundImageFix"/>
<feColorMatrix in="SourceAlpha" type="matrix" values="0 0 0 0 0 0 0 0 0 0 0 0 0 0 0 0 0 0 127 0" result="hardAlpha"/>
<feOffset dx="2" dy="2"/>
<feGaussianBlur stdDeviation="3"/>
<feColorMatrix type="matrix" values="0 0 0 0 0 0 0 0 0 0 0 0 0 0 0 0 0 0 0.25 0"/>
<feBlend mode="normal" in2="BackgroundImageFix" result="effect1_dropShadow_241_133"/>
<feBlend mode="normal" in="SourceGraphic" in2="effect1_dropShadow_241_133" result="shape"/>
</filter>
<filter id="filter2_d_241_133" x="0" y="20" width="307" height="211.896" filterUnits="userSpaceOnUse" color-interpolation-filters="sRGB">
<feFlood flood-opacity="0" result="BackgroundImageFix"/>
<feColorMatrix in="SourceAlpha" type="matrix" values="0 0 0 0 0 0 0 0 0 0 0 0 0 0 0 0 0 0 127 0" result="hardAlpha"/>
<feOffset dx="2" dy="2"/>
<feGaussianBlur stdDeviation="3"/>
<feColorMatrix type="matrix" values="0 0 0 0 0 0 0 0 0 0 0 0 0 0 0 0 0 0 0.25 0"/>
<feBlend mode="normal" in2="BackgroundImageFix" result="effect1_dropShadow_241_133"/>
<feBlend mode="normal" in="SourceGraphic" in2="effect1_dropShadow_241_133" result="shape"/>
</filter>
<linearGradient id="paint0_linear_241_133" x1="211.432" y1="72.4091" x2="206.174" y2="127.658" gradientUnits="userSpaceOnUse">
<stop stop-color="#D9A7F7"/>
<stop offset="1" stop-color="#2C30D0"/>
</linearGradient>
<linearGradient id="paint1_linear_241_133" x1="27811.5" y1="12594.7" x2="27406" y2="26133.8" gradientUnits="userSpaceOnUse">
<stop stop-color="#D9A7F7"/>
<stop offset="1" stop-color="#2C30D0"/>
</linearGradient>
<linearGradient id="paint2_linear_241_133" x1="67275.3" y1="14823.9" x2="67196.8" y2="20700.4" gradientUnits="userSpaceOnUse">
<stop stop-color="#D9A7F7"/>
<stop offset="1" stop-color="#2C30D0"/>
</linearGradient>
</defs>
</svg>
