<?xml version="1.0" encoding="UTF-8"?>
<!DOCTYPE svg PUBLIC "-//W3C//DTD SVG 1.1//EN" "http://www.w3.org/Graphics/SVG/1.1/DTD/svg11.dtd">
<svg xmlns="http://www.w3.org/2000/svg" version="1.1" width="4000px" height="3997px" style="shape-rendering:geometricPrecision; text-rendering:geometricPrecision; image-rendering:optimizeQuality; fill-rule:evenodd; clip-rule:evenodd" xmlns:xlink="http://www.w3.org/1999/xlink">
<g><path style="opacity:1" fill="#1fd4c5" d="M 914.5,-0.5 C 1942.83,-0.5 2971.17,-0.5 3999.5,-0.5C 3999.5,1331.83 3999.5,2664.17 3999.5,3996.5C 3571.17,3996.5 3142.83,3996.5 2714.5,3996.5C 2710.35,3995.68 2706.02,3995.18 2701.5,3995C 2791.87,3923.95 2880.2,3850.29 2966.5,3774C 3027.64,3719.2 3085.8,3661.36 3141,3600.5C 3187.12,3549.25 3228.12,3494.25 3264,3435.5C 3287.75,3395.66 3305.75,3353.32 3318,3308.5C 3340.35,3220.92 3322.02,3143.26 3263,3075.5C 3230.76,3041.33 3194.26,3012.83 3153.5,2990C 3117.65,2970.24 3080.65,2952.91 3042.5,2938C 2926.32,2897.16 2810.98,2854.16 2696.5,2809C 2616.68,2777.26 2539.68,2739.92 2465.5,2697C 2410.81,2664.34 2361.31,2624.84 2317,2578.5C 2248.49,2500.78 2207.49,2410.11 2194,2306.5C 2184.23,2232.38 2182.23,2158.05 2188,2083.5C 2190.59,2046.39 2194.25,2009.39 2199,1972.5C 2206.67,1918.78 2214.67,1865.12 2223,1811.5C 2235.4,1723.52 2239.06,1635.18 2234,1546.5C 2221.06,1317.99 2119.23,1142.16 1928.5,1019C 1849.13,969.15 1765.47,927.484 1677.5,894C 1607.09,867.086 1535.76,842.752 1463.5,821C 1398.01,801.725 1332.34,783.058 1266.5,765C 1189.25,742.036 1117.25,708.369 1050.5,664C 907.609,563.029 841.109,424.529 851,248.5C 857.136,161.606 878.302,78.6059 914.5,-0.5 Z"/></g>
</svg>
