<?xml version="1.0" encoding="UTF-8"?>
<!DOCTYPE svg PUBLIC "-//W3C//DTD SVG 1.1//EN" "http://www.w3.org/Graphics/SVG/1.1/DTD/svg11.dtd">
<svg xmlns="http://www.w3.org/2000/svg" version="1.1" width="4000px" height="3997px" style="shape-rendering:geometricPrecision; text-rendering:geometricPrecision; image-rendering:optimizeQuality; fill-rule:evenodd; clip-rule:evenodd" xmlns:xlink="http://www.w3.org/1999/xlink">
<g><path style="opacity:1" fill="#fefefe" d="M -0.5,-0.5 C 20.8333,-0.5 42.1667,-0.5 63.5,-0.5C 27.398,78.7882 6.06468,161.788 -0.5,248.5C -0.5,165.5 -0.5,82.5 -0.5,-0.5 Z"/></g>
<g><path style="opacity:1" fill="#6fceb0" d="M 63.5,-0.5 C 1375.5,-0.5 2687.5,-0.5 3999.5,-0.5C 3999.5,1331.83 3999.5,2664.17 3999.5,3996.5C 3287.5,3996.5 2575.5,3996.5 1863.5,3996.5C 1859.35,3995.68 1855.02,3995.18 1850.5,3995C 1940.87,3923.95 2029.2,3850.29 2115.5,3774C 2182.03,3714.47 2244.87,3651.3 2304,3584.5C 2348.43,3534.07 2387.43,3479.74 2421,3421.5C 2522.91,3238 2483.41,3094.16 2302.5,2990C 2273.08,2973.46 2242.75,2958.79 2211.5,2946C 2105.94,2907.59 2000.6,2868.59 1895.5,2829C 1834.26,2805.14 1773.93,2779.14 1714.5,2751C 1662.51,2725.93 1612.84,2697.26 1565.5,2665C 1506.58,2624.08 1457.08,2573.91 1417,2514.5C 1376.52,2448.4 1351.52,2376.74 1342,2299.5C 1333.76,2233.36 1331.76,2167.03 1336,2100.5C 1338.14,2063.06 1341.48,2025.73 1346,1988.5C 1353.91,1929.39 1362.57,1870.39 1372,1811.5C 1386.27,1712.12 1388.94,1612.45 1380,1512.5C 1361.61,1316.81 1273.78,1161.31 1116.5,1046C 1043.11,993.951 964.439,950.618 880.5,916C 786.469,876.988 690.469,843.321 592.5,815C 533.634,797.867 474.634,781.2 415.5,765C 338.252,742.036 266.252,708.369 199.5,664C 77.6948,579.936 11.0281,463.769 -0.5,315.5C -0.5,293.167 -0.5,270.833 -0.5,248.5C 6.06468,161.788 27.398,78.7882 63.5,-0.5 Z"/></g>
<g><path style="opacity:1" fill="#fefefe" d="M -0.5,315.5 C 11.0281,463.769 77.6948,579.936 199.5,664C 266.252,708.369 338.252,742.036 415.5,765C 474.634,781.2 533.634,797.867 592.5,815C 690.469,843.321 786.469,876.988 880.5,916C 964.439,950.618 1043.11,993.951 1116.5,1046C 1273.78,1161.31 1361.61,1316.81 1380,1512.5C 1388.94,1612.45 1386.27,1712.12 1372,1811.5C 1362.57,1870.39 1353.91,1929.39 1346,1988.5C 1341.48,2025.73 1338.14,2063.06 1336,2100.5C 1331.76,2167.03 1333.76,2233.36 1342,2299.5C 1351.52,2376.74 1376.52,2448.4 1417,2514.5C 1457.08,2573.91 1506.58,2624.08 1565.5,2665C 1612.84,2697.26 1662.51,2725.93 1714.5,2751C 1773.93,2779.14 1834.26,2805.14 1895.5,2829C 2000.6,2868.59 2105.94,2907.59 2211.5,2946C 2242.75,2958.79 2273.08,2973.46 2302.5,2990C 2483.41,3094.16 2522.91,3238 2421,3421.5C 2387.43,3479.74 2348.43,3534.07 2304,3584.5C 2244.87,3651.3 2182.03,3714.47 2115.5,3774C 2029.2,3850.29 1940.87,3923.95 1850.5,3995C 1855.02,3995.18 1859.35,3995.68 1863.5,3996.5C 1242.17,3996.5 620.833,3996.5 -0.5,3996.5C -0.5,2769.5 -0.5,1542.5 -0.5,315.5 Z"/></g>
</svg>
